<?xml version="1.0" standalone="no"?>
<!DOCTYPE svg PUBLIC "-//W3C//DTD SVG 20010904//EN"
 "http://www.w3.org/TR/2001/REC-SVG-20010904/DTD/svg10.dtd">
<svg version="1.0" xmlns="http://www.w3.org/2000/svg"
 width="512.000000pt" height="512.000000pt" viewBox="0 0 512.000000 512.000000"
 preserveAspectRatio="xMidYMid meet">
<metadata>
Created by potrace 1.11, written by Peter Selinger 2001-2013
</metadata>
<g transform="translate(0.000000,512.000000) scale(0.100000,-0.100000)"
fill="#000000" stroke="none">
<path d="M2355 5064 c-504 -53 -926 -216 -1315 -508 -123 -91 -330 -294 -433
-421 -242 -300 -426 -687 -502 -1052 -58 -280 -70 -617 -30 -883 165 -1106
1024 -1964 2130 -2126 151 -22 409 -29 565 -15 764 69 1446 475 1875 1116 210
314 340 655 401 1055 22 138 24 465 5 610 -51 396 -172 740 -371 1057 -337
537 -872 928 -1493 1093 -191 50 -349 71 -582 75 -115 1 -228 1 -250 -1z m492
-189 c178 -24 292 -50 458 -106 793 -268 1387 -952 1545 -1777 47 -250 52
-591 11 -827 -82 -471 -293 -887 -624 -1231 -198 -206 -383 -341 -649 -474
-327 -163 -664 -240 -1042 -240 -995 2 -1877 639 -2195 1585 -88 261 -121 476
-121 777 0 266 33 466 117 718 258 776 924 1374 1719 1541 237 50 553 63 781
34z"/>
<path d="M2451 3383 c-292 -348 -435 -504 -743 -809 -236 -234 -425 -410 -695
-648 -62 -55 -113 -105 -113 -112 0 -22 29 -36 57 -29 16 3 188 113 383 244
336 225 611 397 727 455 68 34 136 35 184 3 19 -12 68 -67 108 -122 41 -55
116 -141 165 -191 158 -158 272 -193 409 -126 80 40 222 183 350 355 123 164
129 166 237 76 99 -83 285 -203 408 -264 94 -45 103 -48 118 -33 24 23 10 50
-44 88 -181 129 -367 374 -502 662 -51 109 -70 135 -89 124 -4 -3 -30 -42 -58
-88 -28 -46 -77 -112 -110 -147 -69 -77 -194 -172 -257 -196 -64 -25 -161 -17
-210 15 -68 46 -140 157 -187 290 -22 60 -23 81 -24 273 0 173 -2 209 -15 217
-32 20 -59 10 -99 -37z"/>
</g>
</svg>
